<svg version="1.1" id="Layer_1" xmlns="http://www.w3.org/2000/svg" xmlns:xlink="http://www.w3.org/1999/xlink" x="0px" y="0px"
	 width="100%" viewBox="0 0 473 230" enable-background="new 0 0 473 230" xml:space="preserve">
<path fill="#FFFFFF" opacity="1.000000" stroke="none" 
	d="
M474.000000,145.000000 
	C474.000000,154.687561 474.000000,164.375122 473.662506,174.405197 
	C469.667664,168.183594 458.757233,168.694794 454.503662,173.149551 
	C450.533966,177.307007 451.166779,188.707336 455.376740,191.671387 
	C460.235413,195.092163 469.114868,195.757248 474.000000,189.000000 
	C474.000000,198.354233 474.000000,207.708450 473.531342,217.531342 
	C429.109497,218.000000 385.156281,218.000000 341.203094,218.000000 
	C341.207825,218.666672 341.212585,219.333328 341.217316,220.000000 
	C385.478210,220.000000 429.739105,220.000000 474.000000,220.000000 
	C474.000000,223.660263 474.000000,227.320526 474.000000,231.000000 
	C394.312439,231.000000 314.624878,231.000000 234.597076,230.663757 
	C239.510803,229.519196 240.667480,225.105515 241.819687,221.119980 
	C243.421661,215.578705 239.559296,208.282578 234.860382,207.040558 
	C226.995804,204.961792 221.662598,207.728165 219.474701,215.021240 
	C217.520752,221.534500 220.405289,227.659348 227.000000,231.000000 
	C214.979111,231.000000 202.958206,231.000000 190.603149,230.659027 
	C196.777420,229.607010 197.997742,224.525452 198.924194,219.477203 
	C199.795563,214.729141 195.581833,208.293579 191.224854,207.120422 
	C184.699600,205.363434 179.633591,207.396210 177.057510,212.805130 
	C173.735809,219.779617 176.583496,227.242813 184.000000,231.000000 
	C178.645065,231.000000 173.290146,231.000000 167.595932,230.663849 
	C171.499054,229.419800 173.442413,226.632111 173.996964,222.420837 
	C172.230789,221.915909 170.745773,221.491364 169.378845,221.100571 
	C165.502563,226.781799 161.715515,227.561386 160.239563,223.063705 
	C159.369507,220.412308 159.509735,216.860901 160.580338,214.291183 
	C161.802231,211.358337 165.178223,210.629852 167.498154,213.279846 
	C169.942734,216.072250 171.733246,215.219727 173.951828,213.534988 
	C171.429764,207.574677 168.577835,205.946869 161.786819,207.063675 
	C157.493164,207.769791 154.613541,210.553162 154.077469,214.889481 
	C153.262726,221.479965 153.978226,227.661774 161.000000,231.000000 
	C107.666656,231.000000 54.333317,231.000000 1.000000,231.000000 
	C1.000000,227.614349 1.000000,224.290131 1.468657,220.482956 
	C45.557224,220.000000 89.177139,220.000000 132.797043,220.000000 
	C132.792267,219.333328 132.787491,218.666672 132.782700,218.000000 
	C88.855133,218.000000 44.927567,218.000000 1.000000,218.000000 
	C1.000000,210.312424 1.000000,202.624832 1.452726,194.468628 
	C4.167746,194.000000 6.430040,194.000000 9.174635,194.000000 
	C9.174635,190.673340 9.174635,187.940414 9.174635,185.381531 
	C11.731502,185.381531 13.786491,185.381531 16.156717,185.381531 
	C16.156717,188.369171 16.156717,190.975739 16.156717,193.714554 
	C18.874449,193.714554 21.260508,193.714554 23.687578,193.714554 
	C23.687578,185.704636 23.687578,177.983383 23.687578,170.356049 
	C20.970640,170.356049 18.575584,170.356049 15.877464,170.356049 
	C15.877464,172.990067 15.877464,175.267014 15.877464,177.741180 
	C13.500469,177.741180 11.444180,177.741180 9.213700,177.741180 
	C9.050867,175.089188 8.902911,172.679489 8.738390,170.000000 
	C5.941651,170.000000 3.470825,170.000000 1.000000,170.000000 
	C1.000000,161.979095 1.000000,153.958191 1.468657,145.469025 
	C118.809364,145.000778 235.681412,145.000778 352.719208,145.000778 
	C352.719208,126.798744 352.719208,109.084084 352.719208,90.867905 
	C329.392761,90.867905 306.342682,90.867905 283.000000,90.867905 
	C283.000000,60.577576 283.000000,30.788788 283.000000,1.000000 
	C286.030609,1.000000 289.061188,1.000000 292.545898,1.468657 
	C293.000000,27.838997 293.000000,53.740681 293.000000,80.085175 
	C316.299133,80.085175 338.873474,80.085175 362.068420,80.085175 
	C362.068420,101.888275 362.068420,123.251129 362.068420,145.000000 
	C399.796356,145.000000 436.898163,145.000000 474.000000,145.000000 
M187.993744,176.135773 
	C187.993744,174.205566 187.993744,172.275360 187.993744,170.304718 
	C180.377686,170.304718 173.320435,170.304718 166.347198,170.304718 
	C166.347198,172.684265 166.347198,174.739838 166.347198,177.099319 
	C168.633926,177.099319 170.574249,177.099319 173.000198,177.099319 
	C173.000198,182.791901 173.000198,188.196930 173.000198,193.712250 
	C175.882278,193.712250 178.266815,193.712250 181.126038,193.712250 
	C181.126038,188.031830 181.126038,182.626022 181.126038,176.959961 
	C183.752090,176.959961 185.897964,176.959961 188.006958,177.869598 
	C188.004654,179.525879 187.990158,181.182251 188.002243,182.838425 
	C188.043503,188.492767 190.862289,192.517365 195.707031,193.856339 
	C200.749725,195.250015 207.692749,193.009369 210.313370,189.142593 
	C212.934418,185.275208 212.513321,177.409470 209.501907,173.984711 
	C203.391159,167.035217 193.909851,168.381454 187.993744,176.135773 
M235.595688,175.098099 
	C232.448090,169.819183 224.947937,168.223022 215.241150,170.738510 
	C215.241150,178.361954 215.241150,185.967682 215.241150,193.722198 
	C217.882736,193.722198 220.278702,193.722198 222.828979,193.722198 
	C222.964355,190.803482 223.087372,188.151413 223.210388,185.499344 
	C223.570587,185.055450 223.930786,184.611572 224.290970,184.167679 
	C226.871002,197.905487 236.623978,193.308960 244.541626,194.014496 
	C244.899567,192.501678 245.183685,191.300873 245.471481,190.084564 
	C247.911423,190.084564 250.061249,190.084564 252.575775,190.084564 
	C253.389175,196.912170 258.292816,193.166565 262.152252,193.944626 
	C259.472992,186.622147 256.870758,179.820465 254.512375,172.935272 
	C253.315613,169.441391 250.615067,170.151871 248.039200,169.962997 
	C245.352417,169.765961 244.492004,170.989563 243.684280,173.459106 
	C241.757324,179.350739 239.278641,185.061920 236.844376,191.303467 
	C235.102875,188.203674 233.750153,185.795883 232.878143,184.243744 
	C234.005890,181.130234 234.969635,178.469482 235.595688,175.098099 
M333.517761,177.038818 
	C330.642090,172.733047 328.140900,167.740021 321.257996,170.556808 
	C321.257996,178.175262 321.257996,185.891861 321.257996,193.707336 
	C323.911713,193.707336 326.301331,193.707336 329.223816,193.707336 
	C329.223816,190.449753 329.223816,187.474686 329.223816,183.650635 
	C333.604797,188.797531 335.027191,196.942139 343.610748,193.466476 
	C343.610748,185.539993 343.610748,177.834335 343.610748,170.248077 
	C340.946259,170.248077 338.673737,170.248077 335.882507,170.248077 
	C335.882507,173.471771 335.882507,176.475555 335.882507,180.894135 
	C334.706757,178.942780 334.321472,178.303345 333.517761,177.038818 
M98.000000,188.376495 
	C98.000000,190.147781 98.000000,191.919083 98.000000,193.671524 
	C100.984894,193.671524 103.378647,193.671524 105.834488,193.671524 
	C105.969933,190.636047 106.090912,187.924683 106.272163,183.862610 
	C110.638161,189.269073 112.185814,197.400223 121.491272,192.983521 
	C119.800110,189.872772 118.052948,186.658997 116.305786,183.445236 
	C116.752655,183.500046 117.199516,183.554855 117.646385,183.609665 
	C118.031822,180.264084 119.210640,176.730103 118.479202,173.649719 
	C118.094124,172.027969 114.461388,170.449509 112.136955,170.170944 
	C107.602730,169.627533 102.957344,170.011581 98.000000,170.011581 
	C98.000000,176.169907 98.000000,181.788834 98.000000,188.376495 
M431.879974,193.999466 
	C433.476715,193.999466 435.073456,193.999466 436.677246,193.999466 
	C436.677246,185.688904 436.677246,177.963547 436.677246,170.365372 
	C433.947723,170.365372 431.550446,170.365372 428.798492,170.365372 
	C428.798492,173.590378 428.798492,176.451767 428.798492,179.622726 
	C424.598297,175.606094 423.864563,167.450394 415.248627,170.506897 
	C415.248627,178.077408 415.248627,185.810715 415.248627,193.735062 
	C417.511169,193.735062 419.565063,193.735062 422.198944,193.735062 
	C422.198944,190.203705 422.198944,186.916061 422.198944,183.840607 
	C425.254608,187.355484 428.140808,190.675415 431.879974,193.999466 
M82.975525,172.478699 
	C77.180161,168.222946 70.673630,170.619247 64.278709,169.994965 
	C64.278709,178.218109 64.278709,185.937820 64.278709,193.686890 
	C66.959885,193.686890 69.357452,193.686890 72.052917,193.686890 
	C72.052917,190.794434 72.052917,188.210297 72.052917,183.877106 
	C76.127884,190.129959 78.460548,197.317123 86.889786,193.185699 
	C85.069237,189.926682 83.212776,186.603363 81.271736,183.128647 
	C85.096497,180.497452 86.318726,177.200302 82.975525,172.478699 
M244.000000,223.399902 
	C244.000000,225.509567 244.000000,227.619217 244.000000,230.042267 
	C245.978165,229.903870 247.366989,229.806717 249.007996,229.691910 
	C249.007996,225.428009 249.007996,221.517761 249.007996,217.607529 
	C250.363647,220.614975 250.954315,223.779770 252.097458,226.730530 
	C252.605301,228.041443 254.421616,229.931473 255.300415,229.763290 
	C256.689056,229.497528 258.312592,227.939423 258.900177,226.536118 
	C260.098419,223.674500 260.672546,220.551575 261.503784,217.536301 
	C261.704285,217.568878 261.904785,217.601456 262.105286,217.634033 
	C262.105286,221.585922 262.105286,225.537811 262.105286,229.736328 
	C263.771790,229.736328 265.157379,229.736328 266.752625,229.736328 
	C266.752625,222.179184 266.752625,214.788254 266.752625,207.427841 
	C259.295349,206.531250 259.298981,206.532257 257.502258,213.003815 
	C256.906616,215.149292 256.286957,217.288101 255.342621,220.610977 
	C254.352570,216.219070 253.838303,213.007309 252.887329,209.930527 
	C251.341248,204.928253 247.430130,207.576874 244.486511,207.132233 
	C244.249466,207.859482 244.066574,208.162247 244.064255,208.466385 
	C244.028961,213.118866 244.017227,217.771545 244.000000,223.399902 
M303.967438,193.995132 
	C315.303772,195.557159 320.603455,187.912674 317.972656,177.404327 
	C316.822144,172.808777 313.155304,170.172211 307.753357,170.000381 
	C301.091400,169.788467 296.619873,172.073059 295.203125,176.412491 
	C292.665253,184.186172 295.395081,190.235229 303.967438,193.995132 
M144.847519,190.291443 
	C147.282547,193.572174 150.642715,194.202896 154.509384,194.051392 
	C160.220459,193.827652 164.038742,191.602982 164.893402,187.087570 
	C165.837540,182.099319 162.772614,179.663666 157.619934,178.274551 
	C160.315735,178.025787 162.089294,177.862137 163.850525,177.699615 
	C163.548508,171.937271 160.608032,169.917465 153.012131,170.000046 
	C147.880707,170.055832 144.041519,172.618820 144.219284,176.597687 
	C144.402557,180.699570 146.712189,183.421631 151.201538,184.089737 
	C153.300018,184.402039 155.264191,185.616898 157.289230,186.422699 
	C157.060242,187.006821 156.831268,187.590958 156.602280,188.175079 
	C152.666870,186.900955 148.731461,185.626846 143.987640,184.090988 
	C144.121582,186.843933 144.191376,188.278412 144.847519,190.291443 
M131.817673,184.013565 
	C134.762772,184.013565 137.707870,184.013565 140.700134,184.013565 
	C140.700134,182.095291 140.700134,180.709061 140.700134,178.866898 
	C136.998077,178.866898 133.582169,178.866898 130.166275,178.866898 
	C133.128754,174.133835 137.928329,177.263077 141.751068,175.464523 
	C141.751068,173.851791 141.751068,172.133362 141.751068,170.285370 
	C135.122681,170.285370 128.741562,170.285370 122.311569,170.285370 
	C122.311569,178.281387 122.311569,185.988586 122.311569,193.677551 
	C129.019470,193.677551 135.410965,193.677551 142.040085,193.677551 
	C141.935654,191.614288 141.848312,189.888367 141.746307,187.873047 
	C137.632797,187.873047 134.023743,187.873047 129.694092,187.873047 
	C130.202087,186.288269 130.553024,185.193466 131.817673,184.013565 
M35.738659,170.001175 
	C34.928455,170.127197 33.540768,170.030258 33.393326,170.412155 
	C30.441790,178.056808 27.633211,185.756638 24.594585,193.990555 
	C28.659395,193.534317 32.649185,195.883408 34.460899,190.554459 
	C34.674793,189.925308 40.249134,189.893677 40.606720,190.739731 
	C42.718262,195.735535 46.442783,193.640213 50.766064,193.828705 
	C48.147911,187.093460 45.359074,181.060471 43.511471,174.751831 
	C42.343067,170.762299 40.512928,169.273010 35.738659,170.001175 
M277.436462,207.000000 
	C275.025513,207.000000 272.614563,207.000000 270.376892,207.000000 
	C270.376892,215.095078 270.376892,222.466461 270.376892,229.999695 
	C275.060425,229.999695 279.368713,230.048569 283.675354,229.985733 
	C287.846039,229.924896 290.979889,226.503937 289.857544,222.536224 
	C288.936584,219.280457 287.113068,216.432449 288.822052,212.798843 
	C289.188995,212.018661 287.738190,209.546249 286.610626,209.069641 
	C284.033081,207.980118 281.137573,207.642822 277.436462,207.000000 
M370.433228,187.043533 
	C367.249176,189.281128 365.520050,187.096466 365.177917,184.576096 
	C364.765656,181.538956 363.717560,177.682877 368.071594,176.124451 
	C368.657196,175.914856 369.865875,176.331223 370.250153,176.852646 
	C373.036011,180.633011 375.961121,178.442780 379.079987,177.369064 
	C378.282501,172.858612 375.215698,170.755569 371.414032,170.116714 
	C366.733154,169.330093 362.038055,169.999039 358.734863,173.896866 
	C356.004822,177.118362 356.426392,186.442703 359.092896,190.330414 
	C361.036682,193.164352 368.159943,195.270523 372.290405,193.772751 
	C375.452881,192.625977 379.331268,191.218414 378.717102,186.982086 
	C378.525238,185.658630 375.149597,184.792450 373.223999,183.730194 
	C372.989594,183.600830 372.709503,183.554306 372.470276,183.475861 
	C371.965363,184.507690 371.475616,185.508514 370.433228,187.043533 
M305.449402,228.043274 
	C307.135437,223.134125 311.181458,225.607086 314.624237,224.919983 
	C315.085571,229.795380 317.656677,231.044540 322.309265,229.315857 
	C319.303345,221.792313 316.373749,214.459717 312.880371,205.716080 
	C310.476471,207.345581 307.515930,208.262482 306.631226,210.151581 
	C303.695068,216.420837 301.506042,223.039993 298.623138,230.591965 
	C301.327332,229.824402 303.185150,229.297089 305.449402,228.043274 
M259.022858,171.627304 
	C259.022858,173.367142 259.022858,175.106979 259.022858,176.852417 
	C261.679504,176.975067 263.619232,177.064621 266.017822,177.175369 
	C266.017822,182.819626 266.017822,188.210541 266.017822,193.718811 
	C268.879730,193.718811 271.259521,193.718811 274.107849,193.718811 
	C274.107849,188.062714 274.107849,182.674164 274.107849,177.235184 
	C276.643005,177.034851 278.711609,176.871399 280.633606,176.719528 
	C280.633606,174.288651 280.633606,172.251068 280.633606,169.671249 
	C273.216583,170.029434 266.183929,170.369049 259.022858,171.627304 
M392.643005,186.997177 
	C391.762268,185.838486 390.206635,184.726929 390.121857,183.512680 
	C389.814606,179.110886 390.000763,174.674622 390.000763,170.364182 
	C386.973846,170.364182 384.588379,170.364182 382.385498,170.364182 
	C382.385498,178.440140 382.385498,186.147781 382.385498,193.765137 
	C388.372070,193.765137 393.970276,193.765137 399.729614,193.765137 
	C399.729614,191.474213 399.729614,189.423523 399.729614,186.999649 
	C397.505371,186.999649 395.545441,186.999649 392.643005,186.997177 
M59.997990,191.256516 
	C59.997990,184.217758 59.997990,177.178986 59.997990,170.215881 
	C57.006218,170.215881 54.739376,170.215881 52.371056,170.215881 
	C52.371056,178.243637 52.371056,186.050812 52.371056,195.026184 
	C55.360622,193.916901 57.672432,193.059082 59.997990,191.256516 
M441.000000,183.484192 
	C441.000000,186.917755 441.000000,190.351334 441.000000,193.612518 
	C444.059265,193.612518 446.449341,193.612518 448.751801,193.612518 
	C448.751801,185.619171 448.751801,178.015427 448.751801,170.295410 
	C446.109833,170.295410 443.722260,170.295410 441.000000,170.295410 
	C441.000000,174.555237 441.000000,178.524170 441.000000,183.484192 
M410.257721,193.854446 
	C410.606415,186.053528 410.955109,178.252609 411.312042,170.267365 
	C408.137970,170.267365 405.762573,170.267365 403.250702,170.267365 
	C403.250702,178.221359 403.250702,185.907074 403.250702,193.978683 
	C405.439728,193.978683 407.383392,193.978683 410.257721,193.854446 
M207.782852,225.862823 
	C207.377274,219.687180 206.971680,213.511536 206.564774,207.315659 
	C204.731445,207.315659 203.012360,207.315659 201.343231,207.315659 
	C201.343231,215.009109 201.343231,222.386688 201.343231,229.998322 
	C206.153503,229.998322 210.625778,229.916794 215.093460,230.024567 
	C218.556625,230.108124 218.455154,228.502899 217.328949,225.979950 
	C214.356079,225.979950 211.537140,225.979950 207.782852,225.862823 
M291.000000,180.516388 
	C291.000000,177.079834 291.000000,173.643295 291.000000,170.196503 
	C288.398865,170.196503 286.453217,170.196503 284.255005,170.196503 
	C284.255005,178.124573 284.255005,185.857513 284.255005,193.706390 
	C286.554688,193.706390 288.608490,193.706390 291.000000,193.706390 
	C291.000000,189.450134 291.000000,185.478500 291.000000,180.516388 
M298.000000,211.674347 
	C297.926086,210.228134 297.852142,208.781937 297.775970,207.291443 
	C296.094604,207.291443 294.718597,207.291443 293.260956,207.291443 
	C293.260956,214.938019 293.260956,222.299850 293.260956,229.703064 
	C294.906281,229.703064 296.286957,229.703064 298.000000,229.703064 
	C298.000000,223.826248 298.000000,218.232025 298.000000,211.674347 
z"/>
<path fill="#2B8691" opacity="1.000000" stroke="none" 
	d="
M282.531342,1.000000 
	C283.000000,30.788788 283.000000,60.577576 283.000000,90.867905 
	C306.342682,90.867905 329.392761,90.867905 352.719208,90.867905 
	C352.719208,109.084084 352.719208,126.798744 352.719208,145.000778 
	C235.681412,145.000778 118.809364,145.000778 1.468657,145.000397 
	C1.000000,97.049332 1.000000,49.098671 1.000000,1.000000 
	C94.687508,1.000000 188.375092,1.000000 282.531342,1.000000 
M62.446079,115.596977 
	C66.926193,115.397812 71.422844,115.378036 75.883408,114.966782 
	C90.907616,113.581589 102.542061,106.967499 108.651688,92.613892 
	C112.532738,83.495972 112.651932,73.747566 111.752350,64.114975 
	C109.395966,38.883236 93.914177,27.200968 74.640594,26.769054 
	C60.009415,26.441175 45.369350,26.508802 30.733210,26.404774 
	C28.798410,26.391022 26.863428,26.402884 24.767654,26.402884 
	C24.767654,56.429134 24.767654,85.768082 24.767654,115.596581 
	C37.237610,115.596581 49.349255,115.596581 62.446079,115.596977 
M152.219299,26.403456 
	C144.948227,26.403456 137.677155,26.403456 130.368484,26.403456 
	C130.368484,56.431564 130.368484,85.704727 130.368484,115.244072 
	C139.309372,115.244072 148.021378,115.244072 157.133316,115.244072 
	C157.133316,103.950333 157.133316,93.002975 157.133316,81.878738 
	C165.112686,81.878738 172.688049,81.878738 180.940002,81.878738 
	C180.940002,93.178337 180.940002,104.215408 180.940002,115.292259 
	C190.212784,115.292259 198.804047,115.292259 207.525284,115.292259 
	C207.525284,85.612328 207.525284,56.237877 207.525284,26.677883 
	C198.602737,26.677883 190.015030,26.677883 180.823242,26.677883 
	C180.823242,36.822311 180.823242,46.703777 180.823242,56.576164 
	C172.613922,56.576164 165.013000,56.576164 156.858444,56.576164 
	C156.858444,47.717857 156.761200,39.101467 156.913330,30.489481 
	C156.963806,27.632215 156.433578,25.897953 152.219299,26.403456 
M229.998260,41.504494 
	C229.998260,66.074112 229.998260,90.643723 229.998260,115.189621 
	C239.415115,115.189621 248.133331,115.189621 256.794312,115.189621 
	C256.794312,85.576286 256.794312,56.356434 256.794312,27.208118 
	C247.702850,27.208118 238.981339,27.208118 229.998260,27.208118 
	C229.998260,31.884714 229.998260,36.196148 229.998260,41.504494 
z"/>
<path fill="#6FC3BE" opacity="1.000000" stroke="none" 
	d="
M474.000000,144.531342 
	C436.898163,145.000000 399.796356,145.000000 362.068420,145.000000 
	C362.068420,123.251129 362.068420,101.888275 362.068420,80.085175 
	C338.873474,80.085175 316.299133,80.085175 293.000000,80.085175 
	C293.000000,53.740681 293.000000,27.838997 293.000000,1.468657 
	C353.252014,1.000000 413.504059,1.000000 474.000000,1.000000 
	C474.000000,48.687283 474.000000,96.374985 474.000000,144.531342 
z"/>
<path fill="#2B8691" opacity="1.000000" stroke="none" 
	d="
M1.000000,170.468628 
	C3.470825,170.000000 5.941651,170.000000 8.738390,170.000000 
	C8.902911,172.679489 9.050867,175.089188 9.213700,177.741180 
	C11.444180,177.741180 13.500469,177.741180 15.877464,177.741180 
	C15.877464,175.267014 15.877464,172.990067 15.877464,170.356049 
	C18.575584,170.356049 20.970640,170.356049 23.687578,170.356049 
	C23.687578,177.983383 23.687578,185.704636 23.687578,193.714554 
	C21.260508,193.714554 18.874449,193.714554 16.156717,193.714554 
	C16.156717,190.975739 16.156717,188.369171 16.156717,185.381531 
	C13.786491,185.381531 11.731502,185.381531 9.174635,185.381531 
	C9.174635,187.940414 9.174635,190.673340 9.174635,194.000000 
	C6.430040,194.000000 4.167746,194.000000 1.452726,194.000000 
	C1.000000,186.312424 1.000000,178.624832 1.000000,170.468628 
z"/>
<path fill="#2B8691" opacity="1.000000" stroke="none" 
	d="
M474.000000,188.600006 
	C469.114868,195.757248 460.235413,195.092163 455.376740,191.671387 
	C451.166779,188.707336 450.533966,177.307007 454.503662,173.149551 
	C458.757233,168.694794 469.667664,168.183594 473.662506,174.873856 
	C474.000000,175.750000 474.000000,176.500000 473.601929,177.626007 
	C470.219360,178.723267 467.168579,180.116943 464.851410,176.520294 
	C464.574768,176.090866 462.366791,176.195847 462.274536,176.467545 
	C461.376343,179.112854 460.375336,181.824402 460.208557,184.566025 
	C460.143768,185.630798 462.645660,187.956848 463.092529,187.754257 
	C464.924255,186.923920 466.414459,185.340256 468.471558,183.677155 
	C469.660675,183.961685 471.830353,184.480835 474.000000,185.000000 
	C474.000000,186.066666 474.000000,187.133347 474.000000,188.600006 
z"/>
<path fill="#2B8691" opacity="1.000000" stroke="none" 
	d="
M227.437500,231.000000 
	C220.405289,227.659348 217.520752,221.534500 219.474701,215.021240 
	C221.662598,207.728165 226.995804,204.961792 234.860382,207.040558 
	C239.559296,208.282578 243.421661,215.578705 241.819687,221.119980 
	C240.667480,225.105515 239.510803,229.519196 234.128418,230.663757 
	C231.958328,231.000000 229.916672,231.000000 227.437500,231.000000 
M235.999176,219.301468 
	C236.188950,215.549240 235.548050,212.336716 230.899429,212.020996 
	C227.682388,211.802475 225.604721,213.241577 225.027969,216.518478 
	C224.227829,221.064529 226.032303,225.175980 229.486664,225.707581 
	C233.494476,226.324341 235.296921,223.719025 235.999176,219.301468 
z"/>
<path fill="#2B8691" opacity="1.000000" stroke="none" 
	d="
M184.428467,231.000000 
	C176.583496,227.242813 173.735809,219.779617 177.057510,212.805130 
	C179.633591,207.396210 184.699600,205.363434 191.224854,207.120422 
	C195.581833,208.293579 199.795563,214.729141 198.924194,219.477203 
	C197.997742,224.525452 196.777420,229.607010 190.134491,230.659027 
	C188.285645,231.000000 186.571289,231.000000 184.428467,231.000000 
M184.129700,212.403687 
	C183.420837,215.156021 181.978180,217.984818 182.254333,220.634491 
	C182.446838,222.481461 184.732895,224.956772 186.577255,225.511887 
	C188.001740,225.940643 190.924347,224.293365 191.910065,222.754868 
	C195.381821,217.336044 191.700928,211.970215 184.129700,212.403687 
z"/>
<path fill="#2B8691" opacity="1.000000" stroke="none" 
	d="
M161.428467,231.000000 
	C153.978226,227.661774 153.262726,221.479965 154.077469,214.889481 
	C154.613541,210.553162 157.493164,207.769791 161.786819,207.063675 
	C168.577835,205.946869 171.429764,207.574677 173.951828,213.534988 
	C171.733246,215.219727 169.942734,216.072250 167.498154,213.279846 
	C165.178223,210.629852 161.802231,211.358337 160.580338,214.291183 
	C159.509735,216.860901 159.369507,220.412308 160.239563,223.063705 
	C161.715515,227.561386 165.502563,226.781799 169.378845,221.100571 
	C170.745773,221.491364 172.230789,221.915909 173.996964,222.420837 
	C173.442413,226.632111 171.499054,229.419800 167.128326,230.663849 
	C165.285645,231.000000 163.571289,231.000000 161.428467,231.000000 
z"/>
<path fill="#2B8691" opacity="1.000000" stroke="none" 
	d="
M474.000000,219.666672 
	C429.739105,220.000000 385.478210,220.000000 341.217316,220.000000 
	C341.212585,219.333328 341.207825,218.666672 341.203094,218.000000 
	C385.156281,218.000000 429.109497,218.000000 473.531342,218.000000 
	C474.000000,218.444443 474.000000,218.888901 474.000000,219.666672 
z"/>
<path fill="#2B8691" opacity="1.000000" stroke="none" 
	d="
M1.000000,218.333328 
	C44.927567,218.000000 88.855133,218.000000 132.782700,218.000000 
	C132.787491,218.666672 132.792267,219.333328 132.797043,220.000000 
	C89.177139,220.000000 45.557224,220.000000 1.468657,220.000000 
	C1.000000,219.555557 1.000000,219.111099 1.000000,218.333328 
z"/>
<path fill="#FFFFFF" opacity="1.000000" stroke="none" 
	d="
M474.000000,184.562500 
	C471.830353,184.480835 469.660675,183.961685 468.471558,183.677155 
	C466.414459,185.340256 464.924255,186.923920 463.092529,187.754257 
	C462.645660,187.956848 460.143768,185.630798 460.208557,184.566025 
	C460.375336,181.824402 461.376343,179.112854 462.274536,176.467545 
	C462.366791,176.195847 464.574768,176.090866 464.851410,176.520294 
	C467.168579,180.116943 470.219360,178.723267 473.601929,178.001007 
	C474.000000,180.041672 474.000000,182.083328 474.000000,184.562500 
z"/>
<path fill="#2B8691" opacity="1.000000" stroke="none" 
	d="
M235.764542,175.453415 
	C234.969635,178.469482 234.005890,181.130234 232.878143,184.243744 
	C233.750153,185.795883 235.102875,188.203674 236.844376,191.303467 
	C239.278641,185.061920 241.757324,179.350739 243.684280,173.459106 
	C244.492004,170.989563 245.352417,169.765961 248.039200,169.962997 
	C250.615067,170.151871 253.315613,169.441391 254.512375,172.935272 
	C256.870758,179.820465 259.472992,186.622147 262.152252,193.944626 
	C258.292816,193.166565 253.389175,196.912170 252.575775,190.084564 
	C250.061249,190.084564 247.911423,190.084564 245.471481,190.084564 
	C245.183685,191.300873 244.899567,192.501678 244.541626,194.014496 
	C236.623978,193.308960 226.871002,197.905487 224.290970,184.167679 
	C223.930786,184.611572 223.570587,185.055450 223.210388,185.499344 
	C223.087372,188.151413 222.964355,190.803482 222.828979,193.722198 
	C220.278702,193.722198 217.882736,193.722198 215.241150,193.722198 
	C215.241150,185.967682 215.241150,178.361954 215.241150,170.738510 
	C224.947937,168.223022 232.448090,169.819183 235.764542,175.453415 
z"/>
<path fill="#2B8691" opacity="1.000000" stroke="none" 
	d="
M333.726990,177.351379 
	C334.321472,178.303345 334.706757,178.942780 335.882507,180.894135 
	C335.882507,176.475555 335.882507,173.471771 335.882507,170.248077 
	C338.673737,170.248077 340.946259,170.248077 343.610748,170.248077 
	C343.610748,177.834335 343.610748,185.539993 343.610748,193.466476 
	C335.027191,196.942139 333.604797,188.797531 329.223816,183.650635 
	C329.223816,187.474686 329.223816,190.449753 329.223816,193.707336 
	C326.301331,193.707336 323.911713,193.707336 321.257996,193.707336 
	C321.257996,185.891861 321.257996,178.175262 321.257996,170.556808 
	C328.140900,167.740021 330.642090,172.733047 333.726990,177.351379 
z"/>
<path fill="#2B8691" opacity="1.000000" stroke="none" 
	d="
M98.000000,187.892136 
	C98.000000,181.788834 98.000000,176.169907 98.000000,170.011581 
	C102.957344,170.011581 107.602730,169.627533 112.136955,170.170944 
	C114.461388,170.449509 118.094124,172.027969 118.479202,173.649719 
	C119.210640,176.730103 118.031822,180.264084 117.646385,183.609665 
	C117.199516,183.554855 116.752655,183.500046 116.305786,183.445236 
	C118.052948,186.658997 119.800110,189.872772 121.491272,192.983521 
	C112.185814,197.400223 110.638161,189.269073 106.272163,183.862610 
	C106.090912,187.924683 105.969933,190.636047 105.834488,193.671524 
	C103.378647,193.671524 100.984894,193.671524 98.000000,193.671524 
	C98.000000,191.919083 98.000000,190.147781 98.000000,187.892136 
z"/>
<path fill="#2B8691" opacity="1.000000" stroke="none" 
	d="
M431.453491,193.997406 
	C428.140808,190.675415 425.254608,187.355484 422.198944,183.840607 
	C422.198944,186.916061 422.198944,190.203705 422.198944,193.735062 
	C419.565063,193.735062 417.511169,193.735062 415.248627,193.735062 
	C415.248627,185.810715 415.248627,178.077408 415.248627,170.506897 
	C423.864563,167.450394 424.598297,175.606094 428.798492,179.622726 
	C428.798492,176.451767 428.798492,173.590378 428.798492,170.365372 
	C431.550446,170.365372 433.947723,170.365372 436.677246,170.365372 
	C436.677246,177.963547 436.677246,185.688904 436.677246,193.999466 
	C435.073456,193.999466 433.476715,193.999466 431.453491,193.997406 
z"/>
<path fill="#2B8691" opacity="1.000000" stroke="none" 
	d="
M83.255875,172.768494 
	C86.318726,177.200302 85.096497,180.497452 81.271736,183.128647 
	C83.212776,186.603363 85.069237,189.926682 86.889786,193.185699 
	C78.460548,197.317123 76.127884,190.129959 72.052917,183.877106 
	C72.052917,188.210297 72.052917,190.794434 72.052917,193.686890 
	C69.357452,193.686890 66.959885,193.686890 64.278709,193.686890 
	C64.278709,185.937820 64.278709,178.218109 64.278709,169.994965 
	C70.673630,170.619247 77.180161,168.222946 83.255875,172.768494 
z"/>
<path fill="#2B8691" opacity="1.000000" stroke="none" 
	d="
M244.000000,222.912033 
	C244.017227,217.771545 244.028961,213.118866 244.064255,208.466385 
	C244.066574,208.162247 244.249466,207.859482 244.486511,207.132233 
	C247.430130,207.576874 251.341248,204.928253 252.887329,209.930527 
	C253.838303,213.007309 254.352570,216.219070 255.342621,220.610977 
	C256.286957,217.288101 256.906616,215.149292 257.502258,213.003815 
	C259.298981,206.532257 259.295349,206.531250 266.752625,207.427841 
	C266.752625,214.788254 266.752625,222.179184 266.752625,229.736328 
	C265.157379,229.736328 263.771790,229.736328 262.105286,229.736328 
	C262.105286,225.537811 262.105286,221.585922 262.105286,217.634033 
	C261.904785,217.601456 261.704285,217.568878 261.503784,217.536301 
	C260.672546,220.551575 260.098419,223.674500 258.900177,226.536118 
	C258.312592,227.939423 256.689056,229.497528 255.300415,229.763290 
	C254.421616,229.931473 252.605301,228.041443 252.097458,226.730530 
	C250.954315,223.779770 250.363647,220.614975 249.007996,217.607529 
	C249.007996,221.517761 249.007996,225.428009 249.007996,229.691910 
	C247.366989,229.806717 245.978165,229.903870 244.000000,230.042267 
	C244.000000,227.619217 244.000000,225.509567 244.000000,222.912033 
z"/>
<path fill="#2B8691" opacity="1.000000" stroke="none" 
	d="
M187.960403,177.043381 
	C193.909851,168.381454 203.391159,167.035217 209.501907,173.984711 
	C212.513321,177.409470 212.934418,185.275208 210.313370,189.142593 
	C207.692749,193.009369 200.749725,195.250015 195.707031,193.856339 
	C190.862289,192.517365 188.043503,188.492767 188.002243,182.838425 
	C187.990158,181.182251 188.004654,179.525879 188.004150,177.435242 
	C188.001328,177.000900 187.960403,177.043381 187.960403,177.043381 
M196.859543,186.304047 
	C198.560013,186.531433 201.543259,187.337891 201.745850,186.889099 
	C202.797562,184.559372 203.691025,181.865662 203.494339,179.389709 
	C203.397537,178.171249 200.757904,176.216888 199.394424,176.316315 
	C198.174698,176.405243 196.649109,178.704193 196.137405,180.308411 
	C195.619415,181.932373 196.179657,183.900269 196.859543,186.304047 
z"/>
<path fill="#2B8691" opacity="1.000000" stroke="none" 
	d="
M303.545715,193.979721 
	C295.395081,190.235229 292.665253,184.186172 295.203125,176.412491 
	C296.619873,172.073059 301.091400,169.788467 307.753357,170.000381 
	C313.155304,170.172211 316.822144,172.808777 317.972656,177.404327 
	C320.603455,187.912674 315.303772,195.557159 303.545715,193.979721 
M309.576447,178.096176 
	C308.053955,176.477219 306.551880,174.739609 304.325836,177.187820 
	C301.835876,179.926300 301.845184,183.048965 303.648041,185.931885 
	C304.289032,186.956879 306.930450,188.002197 307.565247,187.539185 
	C310.285309,185.555130 312.302612,182.930252 310.058838,179.257568 
	C309.977783,179.124893 309.984894,178.938339 309.576447,178.096176 
z"/>
<path fill="#2B8691" opacity="1.000000" stroke="none" 
	d="
M144.554337,190.002167 
	C144.191376,188.278412 144.121582,186.843933 143.987640,184.090988 
	C148.731461,185.626846 152.666870,186.900955 156.602280,188.175079 
	C156.831268,187.590958 157.060242,187.006821 157.289230,186.422699 
	C155.264191,185.616898 153.300018,184.402039 151.201538,184.089737 
	C146.712189,183.421631 144.402557,180.699570 144.219284,176.597687 
	C144.041519,172.618820 147.880707,170.055832 153.012131,170.000046 
	C160.608032,169.917465 163.548508,171.937271 163.850525,177.699615 
	C162.089294,177.862137 160.315735,178.025787 157.619934,178.274551 
	C162.772614,179.663666 165.837540,182.099319 164.893402,187.087570 
	C164.038742,191.602982 160.220459,193.827652 154.509384,194.051392 
	C150.642715,194.202896 147.282547,193.572174 144.554337,190.002167 
z"/>
<path fill="#2B8691" opacity="1.000000" stroke="none" 
	d="
M131.360825,184.056107 
	C130.553024,185.193466 130.202087,186.288269 129.694092,187.873047 
	C134.023743,187.873047 137.632797,187.873047 141.746307,187.873047 
	C141.848312,189.888367 141.935654,191.614288 142.040085,193.677551 
	C135.410965,193.677551 129.019470,193.677551 122.311569,193.677551 
	C122.311569,185.988586 122.311569,178.281387 122.311569,170.285370 
	C128.741562,170.285370 135.122681,170.285370 141.751068,170.285370 
	C141.751068,172.133362 141.751068,173.851791 141.751068,175.464523 
	C137.928329,177.263077 133.128754,174.133835 130.166275,178.866898 
	C133.582169,178.866898 136.998077,178.866898 140.700134,178.866898 
	C140.700134,180.709061 140.700134,182.095291 140.700134,184.013565 
	C137.707870,184.013565 134.762772,184.013565 131.360825,184.056107 
z"/>
<path fill="#2B8691" opacity="1.000000" stroke="none" 
	d="
M36.174843,170.000641 
	C40.512928,169.273010 42.343067,170.762299 43.511471,174.751831 
	C45.359074,181.060471 48.147911,187.093460 50.766064,193.828705 
	C46.442783,193.640213 42.718262,195.735535 40.606720,190.739731 
	C40.249134,189.893677 34.674793,189.925308 34.460899,190.554459 
	C32.649185,195.883408 28.659395,193.534317 24.594585,193.990555 
	C27.633211,185.756638 30.441790,178.056808 33.393326,170.412155 
	C33.540768,170.030258 34.928455,170.127197 36.174843,170.000641 
z"/>
<path fill="#2B8691" opacity="1.000000" stroke="none" 
	d="
M277.903809,207.000000 
	C281.137573,207.642822 284.033081,207.980118 286.610626,209.069641 
	C287.738190,209.546249 289.188995,212.018661 288.822052,212.798843 
	C287.113068,216.432449 288.936584,219.280457 289.857544,222.536224 
	C290.979889,226.503937 287.846039,229.924896 283.675354,229.985733 
	C279.368713,230.048569 275.060425,229.999695 270.376892,229.999695 
	C270.376892,222.466461 270.376892,215.095078 270.376892,207.000000 
	C272.614563,207.000000 275.025513,207.000000 277.903809,207.000000 
M276.667419,225.857498 
	C279.109833,225.509827 281.552246,225.162170 284.376282,224.760178 
	C282.919830,219.180115 279.200378,221.602539 276.107788,220.966461 
	C276.107788,222.677063 276.107788,223.932983 276.667419,225.857498 
M276.021912,214.399567 
	C279.522278,217.315582 281.808868,216.689529 283.120422,211.359039 
	C280.433472,212.180740 278.229187,212.854828 276.021912,214.399567 
z"/>
<path fill="#2B8691" opacity="1.000000" stroke="none" 
	d="
M370.709534,186.776428 
	C371.475616,185.508514 371.965363,184.507690 372.470276,183.475861 
	C372.709503,183.554306 372.989594,183.600830 373.223999,183.730194 
	C375.149597,184.792450 378.525238,185.658630 378.717102,186.982086 
	C379.331268,191.218414 375.452881,192.625977 372.290405,193.772751 
	C368.159943,195.270523 361.036682,193.164352 359.092896,190.330414 
	C356.426392,186.442703 356.004822,177.118362 358.734863,173.896866 
	C362.038055,169.999039 366.733154,169.330093 371.414032,170.116714 
	C375.215698,170.755569 378.282501,172.858612 379.079987,177.369064 
	C375.961121,178.442780 373.036011,180.633011 370.250153,176.852646 
	C369.865875,176.331223 368.657196,175.914856 368.071594,176.124451 
	C363.717560,177.682877 364.765656,181.538956 365.177917,184.576096 
	C365.520050,187.096466 367.249176,189.281128 370.709534,186.776428 
z"/>
<path fill="#2B8691" opacity="1.000000" stroke="none" 
	d="
M305.246155,228.406525 
	C303.185150,229.297089 301.327332,229.824402 298.623138,230.591965 
	C301.506042,223.039993 303.695068,216.420837 306.631226,210.151581 
	C307.515930,208.262482 310.476471,207.345581 312.880371,205.716080 
	C316.373749,214.459717 319.303345,221.792313 322.309265,229.315857 
	C317.656677,231.044540 315.085571,229.795380 314.624237,224.919983 
	C311.181458,225.607086 307.135437,223.134125 305.246155,228.406525 
z"/>
<path fill="#2B8691" opacity="1.000000" stroke="none" 
	d="
M259.087097,171.167984 
	C266.183929,170.369049 273.216583,170.029434 280.633606,169.671249 
	C280.633606,172.251068 280.633606,174.288651 280.633606,176.719528 
	C278.711609,176.871399 276.643005,177.034851 274.107849,177.235184 
	C274.107849,182.674164 274.107849,188.062714 274.107849,193.718811 
	C271.259521,193.718811 268.879730,193.718811 266.017822,193.718811 
	C266.017822,188.210541 266.017822,182.819626 266.017822,177.175369 
	C263.619232,177.064621 261.679504,176.975067 259.022858,176.852417 
	C259.022858,175.106979 259.022858,173.367142 259.087097,171.167984 
z"/>
<path fill="#2B8691" opacity="1.000000" stroke="none" 
	d="
M188.022583,176.980438 
	C185.897964,176.959961 183.752090,176.959961 181.126038,176.959961 
	C181.126038,182.626022 181.126038,188.031830 181.126038,193.712250 
	C178.266815,193.712250 175.882278,193.712250 173.000198,193.712250 
	C173.000198,188.196930 173.000198,182.791901 173.000198,177.099319 
	C170.574249,177.099319 168.633926,177.099319 166.347198,177.099319 
	C166.347198,174.739838 166.347198,172.684265 166.347198,170.304718 
	C173.320435,170.304718 180.377686,170.304718 187.993744,170.304718 
	C187.993744,172.275360 187.993744,174.205566 187.977081,176.589569 
	C187.960403,177.043381 188.001328,177.000900 188.022583,176.980438 
z"/>
<path fill="#2B8691" opacity="1.000000" stroke="none" 
	d="
M393.114258,186.998413 
	C395.545441,186.999649 397.505371,186.999649 399.729614,186.999649 
	C399.729614,189.423523 399.729614,191.474213 399.729614,193.765137 
	C393.970276,193.765137 388.372070,193.765137 382.385498,193.765137 
	C382.385498,186.147781 382.385498,178.440140 382.385498,170.364182 
	C384.588379,170.364182 386.973846,170.364182 390.000763,170.364182 
	C390.000763,174.674622 389.814606,179.110886 390.121857,183.512680 
	C390.206635,184.726929 391.762268,185.838486 393.114258,186.998413 
z"/>
<path fill="#2B8691" opacity="1.000000" stroke="none" 
	d="
M59.991116,191.728897 
	C57.672432,193.059082 55.360622,193.916901 52.371056,195.026184 
	C52.371056,186.050812 52.371056,178.243637 52.371056,170.215881 
	C54.739376,170.215881 57.006218,170.215881 59.997990,170.215881 
	C59.997990,177.178986 59.997990,184.217758 59.991116,191.728897 
z"/>
<path fill="#2B8691" opacity="1.000000" stroke="none" 
	d="
M441.000000,182.988647 
	C441.000000,178.524170 441.000000,174.555237 441.000000,170.295410 
	C443.722260,170.295410 446.109833,170.295410 448.751801,170.295410 
	C448.751801,178.015427 448.751801,185.619171 448.751801,193.612518 
	C446.449341,193.612518 444.059265,193.612518 441.000000,193.612518 
	C441.000000,190.351334 441.000000,186.917755 441.000000,182.988647 
z"/>
<path fill="#2B8691" opacity="1.000000" stroke="none" 
	d="
M409.792358,193.916565 
	C407.383392,193.978683 405.439728,193.978683 403.250702,193.978683 
	C403.250702,185.907074 403.250702,178.221359 403.250702,170.267365 
	C405.762573,170.267365 408.137970,170.267365 411.312042,170.267365 
	C410.955109,178.252609 410.606415,186.053528 409.792358,193.916565 
z"/>
<path fill="#2B8691" opacity="1.000000" stroke="none" 
	d="
M208.250534,225.921387 
	C211.537140,225.979950 214.356079,225.979950 217.328949,225.979950 
	C218.455154,228.502899 218.556625,230.108124 215.093460,230.024567 
	C210.625778,229.916794 206.153503,229.998322 201.343231,229.998322 
	C201.343231,222.386688 201.343231,215.009109 201.343231,207.315659 
	C203.012360,207.315659 204.731445,207.315659 206.564774,207.315659 
	C206.971680,213.511536 207.377274,219.687180 208.250534,225.921387 
z"/>
<path fill="#2B8691" opacity="1.000000" stroke="none" 
	d="
M291.000000,181.011627 
	C291.000000,185.478500 291.000000,189.450134 291.000000,193.706390 
	C288.608490,193.706390 286.554688,193.706390 284.255005,193.706390 
	C284.255005,185.857513 284.255005,178.124573 284.255005,170.196503 
	C286.453217,170.196503 288.398865,170.196503 291.000000,170.196503 
	C291.000000,173.643295 291.000000,177.079834 291.000000,181.011627 
z"/>
<path fill="#2B8691" opacity="1.000000" stroke="none" 
	d="
M298.000000,212.156082 
	C298.000000,218.232025 298.000000,223.826248 298.000000,229.703064 
	C296.286957,229.703064 294.906281,229.703064 293.260956,229.703064 
	C293.260956,222.299850 293.260956,214.938019 293.260956,207.291443 
	C294.718597,207.291443 296.094604,207.291443 297.775970,207.291443 
	C297.852142,208.781937 297.926086,210.228134 298.000000,212.156082 
z"/>
<path fill="#FAFCFD" opacity="1.000000" stroke="none" 
	d="
M61.953487,115.596779 
	C49.349255,115.596581 37.237610,115.596581 24.767654,115.596581 
	C24.767654,85.768082 24.767654,56.429134 24.767654,26.402884 
	C26.863428,26.402884 28.798410,26.391022 30.733210,26.404774 
	C45.369350,26.508802 60.009415,26.441175 74.640594,26.769054 
	C93.914177,27.200968 109.395966,38.883236 111.752350,64.114975 
	C112.651932,73.747566 112.532738,83.495972 108.651688,92.613892 
	C102.542061,106.967499 90.907616,113.581589 75.883408,114.966782 
	C71.422844,115.378036 66.926193,115.397812 61.953487,115.596779 
M80.642227,81.706215 
	C80.754036,75.271049 81.439316,68.778847 80.806740,62.417706 
	C80.241737,56.736115 77.119919,51.704605 71.103859,50.347588 
	C66.030449,49.203209 60.673664,49.315128 55.230957,48.853020 
	C55.230957,64.049278 55.230957,78.398010 55.230957,92.714622 
	C71.088593,93.914108 76.199638,91.783768 80.642227,81.706215 
z"/>
<path fill="#FBFCFD" opacity="1.000000" stroke="none" 
	d="
M152.680725,26.403894 
	C156.433578,25.897953 156.963806,27.632215 156.913330,30.489481 
	C156.761200,39.101467 156.858444,47.717857 156.858444,56.576164 
	C165.013000,56.576164 172.613922,56.576164 180.823242,56.576164 
	C180.823242,46.703777 180.823242,36.822311 180.823242,26.677883 
	C190.015030,26.677883 198.602737,26.677883 207.525284,26.677883 
	C207.525284,56.237877 207.525284,85.612328 207.525284,115.292259 
	C198.804047,115.292259 190.212784,115.292259 180.940002,115.292259 
	C180.940002,104.215408 180.940002,93.178337 180.940002,81.878738 
	C172.688049,81.878738 165.112686,81.878738 157.133316,81.878738 
	C157.133316,93.002975 157.133316,103.950333 157.133316,115.244072 
	C148.021378,115.244072 139.309372,115.244072 130.368484,115.244072 
	C130.368484,85.704727 130.368484,56.431564 130.368484,26.403456 
	C137.677155,26.403456 144.948227,26.403456 152.680725,26.403894 
z"/>
<path fill="#FEFEFE" opacity="1.000000" stroke="none" 
	d="
M229.998260,41.006035 
	C229.998260,36.196148 229.998260,31.884714 229.998260,27.208118 
	C238.981339,27.208118 247.702850,27.208118 256.794312,27.208118 
	C256.794312,56.356434 256.794312,85.576286 256.794312,115.189621 
	C248.133331,115.189621 239.415115,115.189621 229.998260,115.189621 
	C229.998260,90.643723 229.998260,66.074112 229.998260,41.006035 
z"/>
<path fill="#FFFFFF" opacity="1.000000" stroke="none" 
	d="
M235.996460,219.717041 
	C235.296921,223.719025 233.494476,226.324341 229.486664,225.707581 
	C226.032303,225.175980 224.227829,221.064529 225.027969,216.518478 
	C225.604721,213.241577 227.682388,211.802475 230.899429,212.020996 
	C235.548050,212.336716 236.188950,215.549240 235.996460,219.717041 
z"/>
<path fill="#FFFFFF" opacity="1.000000" stroke="none" 
	d="
M184.510635,212.234863 
	C191.700928,211.970215 195.381821,217.336044 191.910065,222.754868 
	C190.924347,224.293365 188.001740,225.940643 186.577255,225.511887 
	C184.732895,224.956772 182.446838,222.481461 182.254333,220.634491 
	C181.978180,217.984818 183.420837,215.156021 184.510635,212.234863 
z"/>
<path fill="#FFFFFF" opacity="1.000000" stroke="none" 
	d="
M196.563568,186.010773 
	C196.179657,183.900269 195.619415,181.932373 196.137405,180.308411 
	C196.649109,178.704193 198.174698,176.405243 199.394424,176.316315 
	C200.757904,176.216888 203.397537,178.171249 203.494339,179.389709 
	C203.691025,181.865662 202.797562,184.559372 201.745850,186.889099 
	C201.543259,187.337891 198.560013,186.531433 196.563568,186.010773 
z"/>
<path fill="#FFFFFF" opacity="1.000000" stroke="none" 
	d="
M309.763672,178.436539 
	C309.984894,178.938339 309.977783,179.124893 310.058838,179.257568 
	C312.302612,182.930252 310.285309,185.555130 307.565247,187.539185 
	C306.930450,188.002197 304.289032,186.956879 303.648041,185.931885 
	C301.845184,183.048965 301.835876,179.926300 304.325836,177.187820 
	C306.551880,174.739609 308.053955,176.477219 309.763672,178.436539 
z"/>
<path fill="#FFFFFF" opacity="1.000000" stroke="none" 
	d="
M276.387604,225.523193 
	C276.107788,223.932983 276.107788,222.677063 276.107788,220.966461 
	C279.200378,221.602539 282.919830,219.180115 284.376282,224.760178 
	C281.552246,225.162170 279.109833,225.509827 276.387604,225.523193 
z"/>
<path fill="#FFFFFF" opacity="1.000000" stroke="none" 
	d="
M276.023407,213.964249 
	C278.229187,212.854828 280.433472,212.180740 283.120422,211.359039 
	C281.808868,216.689529 279.522278,217.315582 276.023407,213.964249 
z"/>
<path fill="#2D8792" opacity="1.000000" stroke="none" 
	d="
M80.480698,82.074432 
	C76.199638,91.783768 71.088593,93.914108 55.230957,92.714622 
	C55.230957,78.398010 55.230957,64.049278 55.230957,48.853020 
	C60.673664,49.315128 66.030449,49.203209 71.103859,50.347588 
	C77.119919,51.704605 80.241737,56.736115 80.806740,62.417706 
	C81.439316,68.778847 80.754036,75.271049 80.480698,82.074432 
z"/>
</svg>